<mxfile host="app.diagrams.net" modified="2023-12-24T18:39:20.955Z" agent="Mozilla/5.0 (Linux; Android 10; K) AppleWebKit/537.36 (KHTML, like Gecko) Chrome/120.0.0.0 Mobile Safari/537.36" version="22.1.11" etag="60ABJgPyZ2rURw6iXsoo" type="github">
  <diagram name="Page-1" id="I-lSzCz_3_SkfQ6vlo5A">
    <mxGraphModel>
      <root>
        <mxCell id="0" />
        <mxCell id="1" parent="0" />
      </root>
    </mxGraphModel>
  </diagram>
</mxfile>
